<svg xmlns="http://www.w3.org/2000/svg" xmlns:xlink="http://www.w3.org/1999/xlink" width="296" zoomAndPan="magnify" viewBox="0 0 222 32.249999" height="43" preserveAspectRatio="xMidYMid meet" version="1.0"><defs><g/></defs><g fill="#ff5757" fill-opacity="1"><g transform="translate(10.645566, 18.98009)"><g><path d="M 6.433594 -5.546875 C 4.191406 -5.492188 8.398438 -15.769531 5.425781 -16.601562 C 2.121094 -17.488281 -2.851562 -12.414062 2 -7.042969 C 2.035156 -7.058594 2.453125 -6.953125 2.363281 -7.042969 C -2.121094 -11.804688 1.617188 -16.726562 5.023438 -16.445312 C 7.71875 -16.222656 2.3125 -5.476562 6.347656 -5.285156 C 7.738281 -5.355469 8.972656 -6.695312 13.457031 -15.28125 C 12.378906 -11.980469 12.011719 -7.25 11.179688 -3.703125 C -2.675781 -5.859375 -1.164062 6.449219 5.980469 6.085938 C 9.128906 5.929688 10.761719 2.675781 12.082031 -3.164062 C 14.273438 -2.765625 16.777344 -2.242188 18.117188 -4.015625 C 18.167969 -4.066406 17.976562 -4.171875 17.785156 -4.015625 C 16.8125 -2.675781 13.996094 -2.992188 12.152344 -3.527344 C 13.421875 -9.457031 13.59375 -13.960938 14.863281 -16.132812 C 15.039062 -16.671875 14.257812 -17.019531 13.753906 -16.289062 C 12.046875 -13.804688 8.535156 -5.597656 6.433594 -5.546875 Z M 6.085938 5.753906 C -0.488281 6.519531 -2.328125 -5.546875 11.058594 -3.355469 C 10.050781 1.320312 8.847656 5.441406 6.085938 5.753906 Z M 6.085938 5.753906 "/></g></g></g><g fill="#ff5757" fill-opacity="1"><g transform="translate(30.412299, 18.98009)"><g><path d="M 4.710938 1.042969 C 2.226562 2.746094 4.085938 -4.972656 5.234375 -6.882812 C 5.335938 -7.300781 4.328125 -7.527344 3.980469 -6.761719 L 3.824219 -6.449219 C 2.851562 -6.867188 0.574219 -6.554688 0 -4.15625 C -0.398438 -2.453125 0.277344 -1.285156 1.148438 -1.476562 C 1.632812 -1.582031 2.191406 -2.644531 3.371094 -4.921875 C 2.191406 -1.878906 2.3125 3.128906 5.023438 1.128906 C 6.589844 -0.0351562 8.414062 -2.832031 9.371094 -4.085938 C 9.371094 -4.171875 9.144531 -4.171875 9.074219 -4.101562 C 8.328125 -3.148438 6.222656 0.0703125 4.710938 1.042969 Z M 3.71875 -6.207031 C 2.851562 -4.589844 1.652344 -2.105469 1.269531 -1.824219 C 0.503906 -2.710938 1.53125 -7.074219 3.71875 -6.207031 Z M 3.71875 -6.207031 "/></g></g></g><g fill="#ff5757" fill-opacity="1"><g transform="translate(41.469224, 18.98009)"><g><path d="M 1.234375 -5.320312 C 1.304688 -6 0.296875 -5.5625 0.121094 -4.867188 C -0.382812 -1.722656 -0.226562 -2.226562 -0.523438 -0.0351562 C -0.574219 0.398438 0.105469 0.78125 0.363281 0 L 0.695312 -1.757812 C 2.035156 -6.292969 4.101562 -8.277344 5.007812 -7.613281 C 5.910156 -6.972656 3.25 0.121094 4.851562 0.957031 C 5.300781 1.183594 5.546875 1.183594 6.15625 0.730469 C 7.71875 -0.433594 9.457031 -2.832031 10.414062 -4.085938 C 10.414062 -4.171875 10.1875 -4.171875 10.117188 -4.101562 C 9.371094 -3.148438 7.371094 -0.296875 5.839844 0.644531 C 3.25 2.226562 7.546875 -5.929688 5.179688 -7.824219 C 4.3125 -8.5 2.519531 -7.371094 0.992188 -3.476562 C 1.078125 -4.050781 1.148438 -4.574219 1.234375 -5.320312 Z M 1.234375 -5.320312 "/></g></g></g><g fill="#ff5757" fill-opacity="1"><g transform="translate(53.430163, 18.98009)"><g><path d="M 1.234375 -5.320312 C 1.304688 -6 0.296875 -5.5625 0.121094 -4.867188 C -0.382812 -1.722656 -0.226562 -2.226562 -0.523438 -0.0351562 C -0.574219 0.398438 0.105469 0.78125 0.363281 0 L 0.695312 -1.757812 C 2.035156 -6.292969 4.101562 -8.277344 5.007812 -7.613281 C 5.910156 -6.972656 3.25 0.121094 4.851562 0.957031 C 5.300781 1.183594 5.546875 1.183594 6.15625 0.730469 C 7.71875 -0.433594 9.457031 -2.832031 10.414062 -4.085938 C 10.414062 -4.171875 10.1875 -4.171875 10.117188 -4.101562 C 9.371094 -3.148438 7.371094 -0.296875 5.839844 0.644531 C 3.25 2.226562 7.546875 -5.929688 5.179688 -7.824219 C 4.3125 -8.5 2.519531 -7.371094 0.992188 -3.476562 C 1.078125 -4.050781 1.148438 -4.574219 1.234375 -5.320312 Z M 1.234375 -5.320312 "/></g></g></g><g fill="#ff5757" fill-opacity="1"><g transform="translate(65.388105, 18.98009)"><g/></g></g><g fill="#ff5757" fill-opacity="1"><g transform="translate(71.716358, 18.98009)"><g/></g></g><g fill="#ff5757" fill-opacity="1"><g transform="translate(78.043022, 18.98009)"><g><path d="M 11.527344 5.789062 C 7.769531 6.085938 5.910156 2.050781 7.109375 -1.773438 C 12.378906 -2.226562 12.585938 -3.980469 11.507812 -4.625 C 10.363281 -5.300781 7.824219 -4.867188 6.816406 -1.980469 C 3.390625 -1.632812 0.554688 0.0859375 0.121094 3.527344 C 0.207031 3.527344 0.3125 3.527344 0.453125 3.527344 C 0.871094 0.332031 3.476562 -1.320312 6.746094 -1.738281 C 5.789062 1.355469 6.9375 6.449219 11.578125 6.085938 C 18.097656 5.5625 17.039062 -3.269531 16.238281 -10.222656 C 23.941406 -11.804688 23.054688 -17.90625 18.183594 -16.621094 C 16.863281 -16.273438 14.953125 -14.585938 15.160156 -10.363281 C 10.238281 -9.667969 4.191406 -9.144531 3.546875 -2 L 3.808594 -2 C 4.589844 -9.074219 10.449219 -9.386719 15.175781 -10.066406 C 15.699219 -3.476562 17.175781 5.335938 11.527344 5.789062 Z M 16.203125 -10.535156 C 15.90625 -13.699219 17.265625 -16.132812 18.8125 -16.480469 C 22.671875 -17.246094 23.15625 -12.046875 16.203125 -10.535156 Z M 11.351562 -4.226562 C 12.011719 -3.71875 11.875 -2.503906 7.179688 -2.035156 C 8.117188 -4.625 10.5 -4.867188 11.351562 -4.226562 Z M 11.351562 -4.226562 "/></g></g></g><g fill="#ff5757" fill-opacity="1"><g transform="translate(99.843777, 18.98009)"><g><path d="M 0.175781 -3.894531 C 1.617188 -3.652344 4.449219 -7.128906 5.128906 -6.917969 C 5.789062 -6.710938 3.25 -2.207031 0.800781 -1.199219 C 0.363281 -0.886719 0.710938 -0.433594 1.058594 -0.453125 C 2.363281 -0.523438 3.179688 1.113281 3.390625 2 C -3.617188 6.761719 -1.84375 11.160156 0.851562 11.160156 C 3.214844 11.160156 5.964844 6.761719 4.363281 1.703125 C 6.050781 0.609375 8.152344 -0.992188 10.238281 -4.085938 C 10.238281 -4.171875 9.960938 -4.171875 9.910156 -4.101562 C 8.152344 -1.460938 6.3125 0.105469 4.277344 1.425781 C 3.617188 -0.296875 2.328125 -0.679688 1.21875 -0.695312 C 0.871094 -0.710938 1.042969 -0.902344 1.113281 -0.921875 C 4.730469 -1.859375 6.695312 -6.449219 5.371094 -7.144531 C 4.503906 -7.597656 1.632812 -4.085938 0.382812 -4.121094 C 1.027344 -5.320312 1.773438 -7.058594 0.957031 -7.300781 C -0.660156 -7.683594 -1.703125 -4.207031 0.175781 -3.894531 Z M 3.441406 2.277344 C 4.484375 6.050781 3.25 10.449219 1.078125 10.917969 C -1.199219 11.40625 -3.6875 7.09375 3.441406 2.277344 Z M 0.0859375 -4.171875 C -1.078125 -4.519531 -0.296875 -7.234375 0.816406 -7.09375 C 1.476562 -7.007812 0.46875 -4.710938 0.0859375 -4.171875 Z M 0.0859375 -4.171875 "/></g></g></g><g fill="#ff5757" fill-opacity="1"><g transform="translate(111.665644, 18.98009)"><g><path d="M 5.320312 -5.441406 C 5.441406 -5.980469 4.449219 -6.171875 4.121094 -5.199219 C 3.042969 -2.015625 1.914062 1.183594 1.128906 1.164062 C 0.015625 1.128906 0.835938 -3.476562 1.234375 -5.320312 C 1.390625 -5.824219 0.488281 -6.121094 0.175781 -5.234375 C -0.261719 -4.015625 -1.390625 1.476562 1.128906 1.390625 C 2.191406 1.355469 3.128906 -1.597656 3.824219 -3.371094 C 3.339844 -1.09375 3.617188 0.816406 4.277344 1.390625 C 6.414062 3.269531 10.152344 -3.214844 11.074219 -4.085938 C 11.074219 -4.171875 10.847656 -4.171875 10.777344 -4.101562 C 10.117188 -3.339844 6.1875 2.730469 4.640625 1.304688 C 3.929688 0.433594 5.164062 -4.78125 5.320312 -5.441406 Z M 5.320312 -5.441406 "/></g></g></g><g fill="#ff5757" fill-opacity="1"><g transform="translate(124.339361, 18.98009)"><g><path d="M 4.660156 -9.09375 C 4.765625 -8.847656 5.078125 -9.074219 4.867188 -9.335938 C 4.484375 -9.839844 2.957031 -9.71875 1.789062 -9.40625 C 1.964844 -10.554688 2.207031 -11.804688 2.242188 -11.960938 C 2.417969 -12.761719 1.425781 -12.917969 1.164062 -12.011719 C 0.992188 -11.441406 0.765625 -10.082031 0.589844 -9.128906 C -0.332031 -8.78125 -1.25 -8.640625 -1.582031 -8.9375 C -1.6875 -9.351562 -2.15625 -8.882812 -1.738281 -8.710938 C -1.128906 -8.414062 -0.261719 -8.554688 0.554688 -8.867188 C 0.0351562 -5.894531 -0.800781 -0.574219 0.15625 1.789062 C 0.503906 2.625 1.410156 3.476562 2.363281 2.765625 C 4.207031 1.390625 6.101562 -2.832031 7.058594 -4.085938 C 7.058594 -4.171875 6.832031 -4.171875 6.761719 -4.101562 C 6.015625 -3.148438 3.773438 1.617188 2.121094 2.625 C 1.304688 3.09375 0.851562 2.261719 0.730469 1.511719 C 0.433594 -0.332031 1.164062 -5.808594 1.757812 -9.144531 C 3.476562 -9.578125 4.484375 -9.511719 4.660156 -9.09375 Z M 4.660156 -9.09375 "/></g></g></g><g fill="#ff5757" fill-opacity="1"><g transform="translate(132.997185, 18.98009)"><g><path d="M 2.15625 0.433594 C 1.113281 0.730469 0.398438 -1.042969 0.992188 -4.035156 C 5.511719 -5.371094 3.496094 -8.640625 1.320312 -6.640625 C -0.957031 -4.554688 -0.609375 0.902344 2.191406 0.679688 C 3.753906 0.207031 5.738281 -2.832031 6.695312 -4.085938 C 6.695312 -4.171875 6.46875 -4.171875 6.398438 -4.101562 C 5.648438 -3.148438 3.597656 0.0351562 2.15625 0.433594 Z M 1.078125 -4.328125 C 1.375 -5.335938 2.015625 -7.09375 3.007812 -7.007812 C 3.6875 -6.882812 4.050781 -5.25 1.078125 -4.328125 Z M 1.078125 -4.328125 "/></g></g></g><g fill="#ff5757" fill-opacity="1"><g transform="translate(141.3247, 18.98009)"><g><path d="M 7.753906 -4.066406 C 7.839844 -4.191406 7.632812 -4.257812 7.421875 -4.085938 C 4.832031 -0.296875 2.710938 2.226562 1.597656 1.894531 C 0.242188 1.496094 2.644531 -2.453125 2 -2.921875 C 1.964844 -2.957031 1.703125 -3.113281 0.363281 -4.136719 C 1.808594 -6.222656 2.347656 -7.457031 1.375 -7.894531 C -0.417969 -8.589844 -1.789062 -5.859375 -0.488281 -4.449219 C -0.277344 -4.242188 0.902344 -3.40625 1.269531 -3.128906 C 0.539062 -1.878906 -0.261719 0.226562 0.574219 1.597656 C 0.851562 2.050781 1.390625 2.261719 1.652344 2.242188 C 3.199219 2.136719 5.371094 -0.625 7.753906 -4.066406 Z M 0.140625 -4.3125 C -0.730469 -4.972656 0.488281 -7.960938 1.285156 -7.613281 C 2.105469 -7.265625 1.09375 -5.71875 0.140625 -4.3125 Z M 0.140625 -4.3125 "/></g></g></g></svg>